<?xml version="1.0" encoding="UTF-8"?>
<!DOCTYPE svg PUBLIC "-//W3C//DTD SVG 1.1//EN" "http://www.w3.org/Graphics/SVG/1.1/DTD/svg11.dtd">
<svg xmlns="http://www.w3.org/2000/svg" version="1.1" width="500px" height="173px" style="shape-rendering:geometricPrecision; text-rendering:geometricPrecision; image-rendering:optimizeQuality; fill-rule:evenodd; clip-rule:evenodd" xmlns:xlink="http://www.w3.org/1999/xlink">
<g><path style="opacity:1" fill="#fefefe" d="M -0.5,-0.5 C 166.167,-0.5 332.833,-0.5 499.5,-0.5C 499.5,57.1667 499.5,114.833 499.5,172.5C 332.833,172.5 166.167,172.5 -0.5,172.5C -0.5,114.833 -0.5,57.1667 -0.5,-0.5 Z"/></g>
<g><path style="opacity:1" fill="#e87377" d="M 227.5,26.5 C 220.687,27.4912 213.687,27.8245 206.5,27.5C 206.5,57.1667 206.5,86.8333 206.5,116.5C 205.502,86.6713 205.169,56.6713 205.5,26.5C 212.833,26.5 220.167,26.5 227.5,26.5 Z"/></g>
<g><path style="opacity:1" fill="#dd2f31" d="M 227.5,26.5 C 239.805,25.3224 250.305,28.9891 259,37.5C 266.466,53.9868 262.633,66.9868 247.5,76.5C 250.772,87.983 254.439,99.3163 258.5,110.5C 269.536,83.7526 280.036,56.7526 290,29.5C 291.153,27.503 292.653,27.1696 294.5,28.5C 283.167,57.5 271.833,86.5 260.5,115.5C 258.955,116.452 257.288,116.785 255.5,116.5C 252.182,103.376 248.349,90.3762 244,77.5C 240.565,76.5342 237.065,76.5342 233.5,77.5C 225.5,77.5 217.5,77.5 209.5,77.5C 209.5,90.5 209.5,103.5 209.5,116.5C 208.5,116.5 207.5,116.5 206.5,116.5C 206.5,86.8333 206.5,57.1667 206.5,27.5C 213.687,27.8245 220.687,27.4912 227.5,26.5 Z"/></g>
<g><path style="opacity:1" fill="#f4b9bb" d="M 210.5,30.5 C 210.5,44.8333 210.5,59.1667 210.5,73.5C 219.167,73.5 227.833,73.5 236.5,73.5C 227.682,74.4933 218.682,74.8266 209.5,74.5C 209.171,59.6572 209.504,44.9905 210.5,30.5 Z"/></g>
<g><path style="opacity:1" fill="#fefdfd" d="M 210.5,30.5 C 216.833,30.5 223.167,30.5 229.5,30.5C 233.291,43.8747 237.291,57.2081 241.5,70.5C 240.927,73.0853 239.261,74.0853 236.5,73.5C 227.833,73.5 219.167,73.5 210.5,73.5C 210.5,59.1667 210.5,44.8333 210.5,30.5 Z"/></g>
<g><path style="opacity:1" fill="#fefcfc" d="M 233.5,30.5 C 254.957,31.1266 262.79,41.7933 257,62.5C 254.435,67.2435 250.602,70.2435 245.5,71.5C 241.5,57.8333 237.5,44.1667 233.5,30.5 Z"/></g>
<g><path style="opacity:1" fill="#f7c9cb" d="M 233.5,77.5 C 226.018,78.492 218.352,78.8254 210.5,78.5C 210.829,91.3443 210.495,104.011 209.5,116.5C 209.5,103.5 209.5,90.5 209.5,77.5C 217.5,77.5 225.5,77.5 233.5,77.5 Z"/></g>
<g><path style="opacity:1" fill="#090909" d="M 58.5,123.5 C 64.5092,123.334 70.5092,123.501 76.5,124C 85.0171,126.869 87.8504,132.703 85,141.5C 83.4371,144.728 80.9371,146.895 77.5,148C 73.8484,148.499 70.1817,148.665 66.5,148.5C 66.5,151.833 66.5,155.167 66.5,158.5C 63.8333,158.5 61.1667,158.5 58.5,158.5C 58.5,146.833 58.5,135.167 58.5,123.5 Z"/></g>
<g><path style="opacity:1" fill="#080808" d="M 113.5,123.5 C 116.572,123.183 119.572,123.516 122.5,124.5C 127.236,135.713 131.569,147.046 135.5,158.5C 130.645,159.483 127.312,157.817 125.5,153.5C 120.544,152.506 115.544,152.173 110.5,152.5C 110.528,154.582 109.861,156.416 108.5,158C 105.773,158.818 103.106,158.652 100.5,157.5C 105.236,146.287 109.569,134.954 113.5,123.5 Z"/></g>
<g><path style="opacity:1" fill="#898989" d="M 169.5,123.5 C 164.167,123.5 158.833,123.5 153.5,123.5C 153.5,135.167 153.5,146.833 153.5,158.5C 152.505,146.678 152.172,134.678 152.5,122.5C 158.358,122.178 164.025,122.511 169.5,123.5 Z"/></g>
<g><path style="opacity:1" fill="#060606" d="M 169.5,123.5 C 178.942,124.697 182.775,130.031 181,139.5C 179.356,142.311 177.19,144.644 174.5,146.5C 176.708,150.417 179.041,154.25 181.5,158C 178.5,158.667 175.5,158.667 172.5,158C 170.5,154.667 168.5,151.333 166.5,148C 164.527,147.505 162.527,147.338 160.5,147.5C 160.5,151.167 160.5,154.833 160.5,158.5C 158.167,158.5 155.833,158.5 153.5,158.5C 153.5,146.833 153.5,135.167 153.5,123.5C 158.833,123.5 164.167,123.5 169.5,123.5 Z"/></g>
<g><path style="opacity:1" fill="#818181" d="M 209.5,136.5 C 208.515,132.366 208.182,128.032 208.5,123.5C 206.167,123.5 203.833,123.5 201.5,123.5C 201.5,135.167 201.5,146.833 201.5,158.5C 200.505,146.678 200.172,134.678 200.5,122.5C 203.5,122.5 206.5,122.5 209.5,122.5C 209.5,127.167 209.5,131.833 209.5,136.5 Z"/></g>
<g><path style="opacity:1" fill="#060606" d="M 209.5,136.5 C 211.857,136.663 214.19,136.497 216.5,136C 218.649,132.39 220.316,128.557 221.5,124.5C 224.446,123.345 227.446,123.179 230.5,124C 228.236,130.028 225.569,135.861 222.5,141.5C 225.5,146.833 228.5,152.167 231.5,157.5C 228.554,158.655 225.554,158.821 222.5,158C 220.167,153.667 217.833,149.333 215.5,145C 213.19,144.503 210.857,144.337 208.5,144.5C 208.5,149.167 208.5,153.833 208.5,158.5C 206.167,158.5 203.833,158.5 201.5,158.5C 201.5,146.833 201.5,135.167 201.5,123.5C 203.833,123.5 206.167,123.5 208.5,123.5C 208.182,128.032 208.515,132.366 209.5,136.5 Z"/></g>
<g><path style="opacity:1" fill="#070707" d="M 270.5,124.5 C 273.287,123.523 276.287,123.19 279.5,123.5C 281.757,131.353 284.59,139.02 288,146.5C 290.667,139.167 293.333,131.833 296,124.5C 298.795,123.217 301.628,123.217 304.5,124.5C 300.235,135.461 296.068,146.461 292,157.5C 289.205,158.783 286.372,158.783 283.5,157.5C 279.335,146.321 275.002,135.321 270.5,124.5 Z"/></g>
<g><path style="opacity:1" fill="#858585" d="M 329.5,158.5 C 329.5,146.833 329.5,135.167 329.5,123.5C 327.167,123.5 324.833,123.5 322.5,123.5C 322.5,135.167 322.5,146.833 322.5,158.5C 321.505,146.678 321.172,134.678 321.5,122.5C 324.5,122.5 327.5,122.5 330.5,122.5C 330.828,134.678 330.495,146.678 329.5,158.5 Z"/></g>
<g><path style="opacity:1" fill="#000000" d="M 329.5,158.5 C 327.167,158.5 324.833,158.5 322.5,158.5C 322.5,146.833 322.5,135.167 322.5,123.5C 324.833,123.5 327.167,123.5 329.5,123.5C 329.5,135.167 329.5,146.833 329.5,158.5 Z"/></g>
<g><path style="opacity:1" fill="#070707" d="M 373.5,129.5 C 368.5,129.5 363.5,129.5 358.5,129.5C 358.5,132.167 358.5,134.833 358.5,137.5C 363.167,137.5 367.833,137.5 372.5,137.5C 372.5,139.5 372.5,141.5 372.5,143.5C 367.833,143.5 363.167,143.5 358.5,143.5C 358.5,146.167 358.5,148.833 358.5,151.5C 363.833,151.5 369.167,151.5 374.5,151.5C 374.5,153.833 374.5,156.167 374.5,158.5C 366.5,158.5 358.5,158.5 350.5,158.5C 350.5,146.833 350.5,135.167 350.5,123.5C 358.167,123.5 365.833,123.5 373.5,123.5C 373.5,125.5 373.5,127.5 373.5,129.5 Z"/></g>
<g><path style="opacity:1" fill="#080808" d="M 390.5,123.5 C 393.448,123.223 396.281,123.556 399,124.5C 401.353,131.56 403.687,138.56 406,145.5C 407.934,138.363 410.268,131.363 413,124.5C 415.795,123.217 418.628,123.217 421.5,124.5C 423.722,131.276 426.222,137.943 429,144.5C 431.476,137.573 433.643,130.573 435.5,123.5C 438.518,123.335 441.518,123.502 444.5,124C 440.13,135.276 436.464,146.776 433.5,158.5C 430.552,158.777 427.719,158.444 425,157.5C 422.913,150.232 420.246,143.232 417,136.5C 414.192,143.757 411.692,151.09 409.5,158.5C 406.753,158.813 404.086,158.48 401.5,157.5C 397.426,146.278 393.759,134.945 390.5,123.5 Z"/></g>
<g><path style="opacity:1" fill="#fbfbfb" d="M 66.5,130.5 C 70.2568,130.071 73.7568,130.737 77,132.5C 77.769,135.099 77.6023,137.599 76.5,140C 73.3117,141.316 69.9783,141.816 66.5,141.5C 66.5,137.833 66.5,134.167 66.5,130.5 Z"/></g>
<g><path style="opacity:1" fill="#898989" d="M 168.5,130.5 C 166.167,130.5 163.833,130.5 161.5,130.5C 161.5,133.833 161.5,137.167 161.5,140.5C 160.518,137.038 160.185,133.371 160.5,129.5C 163.385,129.194 166.052,129.527 168.5,130.5 Z"/></g>
<g><path style="opacity:1" fill="#f8f8f8" d="M 168.5,130.5 C 174.157,132.626 174.823,135.793 170.5,140C 167.518,140.498 164.518,140.665 161.5,140.5C 161.5,137.167 161.5,133.833 161.5,130.5C 163.833,130.5 166.167,130.5 168.5,130.5 Z"/></g>
<g><path style="opacity:1" fill="#e3e3e3" d="M 117.5,133.5 C 118.117,133.611 118.617,133.944 119,134.5C 120.484,138.447 121.65,142.447 122.5,146.5C 119.5,146.5 116.5,146.5 113.5,146.5C 114.829,142.178 116.163,137.845 117.5,133.5 Z"/></g>
<g><path style="opacity:1" fill="#b2b2b2" d="M 373.5,129.5 C 369.03,130.486 364.363,130.819 359.5,130.5C 359.5,132.5 359.5,134.5 359.5,136.5C 364.032,136.182 368.366,136.515 372.5,137.5C 367.833,137.5 363.167,137.5 358.5,137.5C 358.5,134.833 358.5,132.167 358.5,129.5C 363.5,129.5 368.5,129.5 373.5,129.5 Z"/></g>
</svg>
